<svg width="153" height="51" viewBox="0 0 153 51" fill="none" xmlns="http://www.w3.org/2000/svg">
<rect y="5.01685" width="40" height="40.1354" rx="11.1782" fill="#3692FF"/>
<path d="M19.3143 16.191C19.8136 17.9164 18.4934 19.8178 16.9801 20.2586C15.4668 20.6995 13.3994 19.7851 12.9001 18.0596C12.4008 16.3342 13.4489 13.9434 14.9622 13.5025C16.9801 12.9146 18.815 14.4655 19.3143 16.191Z" fill="#222327"/>
<path d="M20.1466 16.191C19.6473 17.9164 20.9675 19.8178 22.4808 20.2586C23.9941 20.6995 26.0616 19.7851 26.5609 18.0596C27.0602 16.3342 26.012 13.9434 24.4987 13.5025C22.4808 12.9146 20.6459 14.4655 20.1466 16.191Z" fill="#222327"/>
<path d="M29.5172 28.7966C29.5172 33.1854 25.2138 34.8168 19.3437 34.8168C13.4736 34.8168 9.26758 33.1854 9.26758 28.7966C9.26758 23.6915 13.4736 19.1643 19.3437 19.1643C25.2138 19.1643 29.5172 23.3062 29.5172 28.7966Z" fill="#F3D6DD"/>
<path d="M17.4003 27.9301C17.4003 29.3675 16.4777 30.9444 15.1884 30.9444C13.8991 30.9444 11.8164 29.7732 11.8164 27.626C11.8164 25.609 14.0664 24.8916 16.3913 25.2599C17.8163 25.4857 17.4003 26.4927 17.4003 27.9301Z" fill="#222327"/>
<path d="M16.3219 27.7849C16.3219 28.0005 16.257 28.1753 15.9328 28.1753C15.6085 28.1753 15.5437 28.0005 15.5437 27.7849C15.5437 27.5693 15.6734 27.3945 15.9328 27.3945C16.1922 27.3945 16.3219 27.5693 16.3219 27.7849Z" fill="white"/>
<path d="M21.3221 27.9301C21.3221 29.3675 22.2447 30.9444 23.534 30.9444C24.8233 30.9444 26.906 29.7732 26.906 27.626C26.906 25.609 24.6561 24.8916 22.3311 25.2599C20.9061 25.4857 21.3221 26.4927 21.3221 27.9301Z" fill="#222327"/>
<path d="M22.4018 27.7849C22.4018 28.0005 22.4666 28.1753 22.7909 28.1753C23.1151 28.1753 23.1799 28.0005 23.1799 27.7849C23.1799 27.5693 23.0502 27.3945 22.7909 27.3945C22.5315 27.3945 22.4018 27.5693 22.4018 27.7849Z" fill="white"/>
<path d="M17.8752 30.0093C17.7967 29.8947 17.6402 29.8655 17.5256 29.944C17.411 30.0225 17.3817 30.179 17.4603 30.2936L17.8752 30.0093ZM19.3177 29.7L19.5556 29.6184C19.5208 29.5168 19.4252 29.4484 19.3177 29.4484C19.2102 29.4484 19.1146 29.5168 19.0798 29.6184L19.3177 29.7ZM21.1751 30.2936C21.2536 30.179 21.2244 30.0225 21.1098 29.944C20.9952 29.8655 20.8387 29.8947 20.7602 30.0093L21.1751 30.2936ZM17.4603 30.2936C17.5297 30.395 17.6559 30.531 17.8252 30.6432C17.996 30.7565 18.2241 30.8545 18.4927 30.8545V30.3515C18.3488 30.3515 18.216 30.2989 18.1032 30.2241C17.9889 30.1482 17.9088 30.0584 17.8752 30.0093L17.4603 30.2936ZM18.4927 30.8545C18.8232 30.8545 19.0691 30.6187 19.2221 30.4157C19.3836 30.2014 19.4978 29.9503 19.5556 29.7815L19.0798 29.6184C19.0345 29.7506 18.9424 29.951 18.8204 30.113C18.6898 30.2862 18.5747 30.3515 18.4927 30.3515V30.8545ZM19.0798 29.7815C19.1376 29.9503 19.2518 30.2014 19.4133 30.4157C19.5663 30.6187 19.8122 30.8545 20.1427 30.8545V30.3515C20.0607 30.3515 19.9456 30.2862 19.815 30.113C19.693 29.951 19.6009 29.7506 19.5556 29.6184L19.0798 29.7815ZM20.1427 30.8545C20.4112 30.8545 20.6394 30.7565 20.8102 30.6432C20.9794 30.531 21.1056 30.395 21.1751 30.2936L20.7602 30.0093C20.7265 30.0584 20.6465 30.1482 20.5321 30.2241C20.4193 30.2989 20.2866 30.3515 20.1427 30.3515V30.8545Z" fill="#222327"/>
<path d="M20.6908 29.4678C20.6908 29.677 19.7488 29.9433 19.4318 30.027C19.364 30.0449 19.2941 30.0449 19.2264 30.027C18.9093 29.9433 17.9673 29.677 17.9673 29.4678C17.9673 29.2162 18.7202 28.9473 19.3291 28.9473C19.9379 28.9473 20.6908 29.2162 20.6908 29.4678Z" fill="#222327"/>
<path d="M19.1663 22.7765C15.382 22.7765 13.9914 21.4471 13.7664 20.6695L15.5663 18.7129L19.4662 18.0356L24.8661 20.6695C24.5411 21.2966 22.9546 22.7765 19.1663 22.7765Z" fill="#222327"/>
<path fill-rule="evenodd" clip-rule="evenodd" d="M19.69 36.9994C27.5101 36.9994 33.2429 34.7954 33.2429 28.8662C33.2429 21.4487 27.5101 15.853 19.69 15.853C11.87 15.853 6.26685 21.9692 6.26685 28.8662C6.26685 34.7954 11.87 36.9994 19.69 36.9994ZM19.3826 34.7223C25.1348 34.7223 29.3518 33.1083 29.3518 28.7663C29.3518 23.3344 25.1348 19.2367 19.3826 19.2367C13.6303 19.2367 9.50878 23.7156 9.50878 28.7663C9.50878 33.1083 13.6303 34.7223 19.3826 34.7223Z" fill="white"/>
<path d="M70.8926 22.152H73.9685V25.7406H70.8926V33.0204H66.2786V28.509C62.9976 29.1754 59.7422 29.5343 55.0001 29.5343H49.6171V26.0226H51.6678V18.7428H50.1298V15.2823H64.2792V18.7428H62.7413V25.6381C63.9973 25.4843 65.1764 25.3048 66.2786 25.0998V15.026H70.8926V22.152ZM52.1548 39.121V31.508H56.8713V35.5581H71.4052V39.121H52.1548ZM56.2817 26.0226C56.9225 25.9969 57.5377 25.9969 58.1273 25.9713V18.7428H56.2817V26.0226ZM99.6016 23.9463V27.5349H96.5256V39.121H91.9117V35.0967C88.6306 36.0451 85.3752 36.5834 80.6331 36.5834H76.0192V15.795H89.1433V19.2554H80.6331V33.0716C85.324 33.0716 88.6563 32.6103 91.9117 31.6875V15.026H96.5256V23.9463H99.6016ZM125.235 23.9463V27.5349H122.159V39.121H117.545V15.026H122.159V23.9463H125.235ZM101.652 36.5834V15.795H115.058V36.5834H101.652ZM106.266 33.0716H110.496V19.3067H106.266V33.0716ZM144.844 15.026H149.33V28.9191H144.844V15.026ZM125.747 26.1764C128.746 25.5612 131.002 24.6127 132.258 23.408L127.285 23.7156V20.3833H133.335V18.7428H127.798V15.2823H137.821V19.8962H139.282V15.1541H143.639V28.9191H139.282V23.4849H137.154C135.795 26.1251 132.386 28.3039 127.208 29.6112L125.747 26.1764ZM128.541 35.4555C134.873 35.2248 136.718 33.9175 136.718 31.6875V29.7393H141.332V32.0976C141.332 32.7128 141.255 33.3023 141.102 33.8406C144.075 34.0457 147.023 34.4558 149.33 34.9941L148.099 39.121C145.459 38.1983 141.768 37.3011 138.795 36.8141C136.667 38.2495 133.258 38.9416 129.028 39.121L128.541 35.4555Z" fill="#3692FF"/>
</svg>
