<svg width="81" height="40" viewBox="0 0 81 40" fill="none" xmlns="http://www.w3.org/2000/svg">
<path d="M17.5757 15.3655H19.9999V18.1938H17.5757V23.9311H13.9394V20.3756C11.3535 20.9008 8.78785 21.1837 5.05049 21.1837H0.808078V18.416H2.42424V12.6786H1.21212V9.95138H12.3636V12.6786H11.1515V18.113C12.1414 17.9918 13.0707 17.8503 13.9394 17.6887V9.74936H17.5757V15.3655ZM2.80807 28.7392V22.7392H6.52523V25.9311H17.9797V28.7392H2.80807ZM6.06059 18.416C6.56564 18.3958 7.05048 18.3958 7.51513 18.3756V12.6786H6.06059V18.416ZM40.2019 16.7796V19.6079H37.7777V28.7392H34.1413V25.5675C31.5555 26.315 28.9898 26.7392 25.2524 26.7392H21.6161V10.3554H31.9595V13.0827H25.2524V23.9715C28.9494 23.9715 31.5757 23.6079 34.1413 22.8806V9.74936H37.7777V16.7796H40.2019ZM60.4039 16.7796V19.6079H57.9796V28.7392H54.3433V9.74936H57.9796V16.7796H60.4039ZM41.8181 26.7392V10.3554H52.3837V26.7392H41.8181ZM45.4544 23.9715H48.7877V13.1231H45.4544V23.9715ZM75.8584 9.74936H79.3937V20.6988H75.8584V9.74936ZM60.8079 18.5372C63.1715 18.0524 64.9493 17.3049 65.9392 16.3554L62.02 16.5978V13.9716H66.7877V12.6786H62.4241V9.95138H70.323V13.5877H71.4745V9.85037H74.9089V20.6988H71.4745V16.416H69.7978C68.7271 18.4968 66.0402 20.214 61.9594 21.2443L60.8079 18.5372ZM63.0099 25.8503C67.9998 25.6685 69.4543 24.6382 69.4543 22.8806V21.3453H73.0907V23.2039C73.0907 23.6887 73.0301 24.1534 72.9089 24.5776C75.2523 24.7392 77.5755 25.0624 79.3937 25.4867L78.424 28.7392C76.3432 28.0119 73.4341 27.3049 71.0907 26.921C69.4139 28.0523 66.7271 28.5978 63.3938 28.7392L63.0099 25.8503Z" fill="#3692FF"/>
</svg>
