<svg width="81" height="28" viewBox="0 0 81 28" fill="none" xmlns="http://www.w3.org/2000/svg">
<path d="M17.5757 9.36551H19.9999V12.1938H17.5757V17.9311H13.9394V14.3756C11.3535 14.9008 8.78785 15.1837 5.05049 15.1837H0.808078V12.416H2.42424V6.67865H1.21212V3.95138H12.3636V6.67865H11.1515V12.113C12.1414 11.9918 13.0707 11.8503 13.9394 11.6887V3.74936H17.5757V9.36551ZM2.80807 22.7392V16.7392H6.52523V19.9311H17.9797V22.7392H2.80807ZM6.06059 12.416C6.56564 12.3958 7.05048 12.3958 7.51513 12.3756V6.67865H6.06059V12.416ZM40.2019 10.7796V13.6079H37.7777V22.7392H34.1413V19.5675C31.5555 20.315 28.9898 20.7392 25.2524 20.7392H21.6161V4.35542H31.9595V7.08268H25.2524V17.9715C28.9494 17.9715 31.5757 17.6079 34.1413 16.8806V3.74936H37.7777V10.7796H40.2019ZM60.4039 10.7796V13.6079H57.9796V22.7392H54.3433V3.74936H57.9796V10.7796H60.4039ZM41.8181 20.7392V4.35542H52.3837V20.7392H41.8181ZM45.4544 17.9715H48.7877V7.12309H45.4544V17.9715ZM75.8584 3.74936H79.3937V14.6988H75.8584V3.74936ZM60.8079 12.5372C63.1715 12.0524 64.9493 11.3049 65.9392 10.3554L62.02 10.5978V7.97157H66.7877V6.67865H62.4241V3.95138H70.323V7.58773H71.4745V3.85037H74.9089V14.6988H71.4745V10.416H69.7978C68.7271 12.4968 66.0402 14.214 61.9594 15.2443L60.8079 12.5372ZM63.0099 19.8503C67.9998 19.6685 69.4543 18.6382 69.4543 16.8806V15.3453H73.0907V17.2039C73.0907 17.6887 73.0301 18.1534 72.9089 18.5776C75.2523 18.7392 77.5755 19.0624 79.3937 19.4867L78.424 22.7392C76.3432 22.0119 73.4341 21.3049 71.0907 20.921C69.4139 22.0523 66.7271 22.5978 63.3938 22.7392L63.0099 19.8503Z" fill="#3692FF"/>
</svg>
