<svg width="22" height="19" viewBox="0 0 22 19" fill="none" xmlns="http://www.w3.org/2000/svg">
<path d="M14.7731 9.97294L13.65 8.84989C13.8205 7.96014 13.5866 7.20116 12.9481 6.57296C12.3096 5.94476 11.5436 5.70374 10.65 5.84989L9.52696 4.72684C9.75901 4.61914 9.99779 4.54157 10.2433 4.49414C10.4888 4.44671 10.741 4.42299 11 4.42299C12.1346 4.42299 13.0977 4.81882 13.8894 5.61049C14.6811 6.40216 15.0769 7.36529 15.0769 8.49989C15.0769 8.75886 15.0548 9.0111 15.0106 9.25662C14.9663 9.50212 14.8872 9.74089 14.7731 9.97294ZM17.9538 13.0845L16.85 12.0499C17.4833 11.5666 18.05 11.0291 18.55 10.4374C19.05 9.84572 19.4667 9.19989 19.8 8.49989C18.9667 6.81656 17.7625 5.47906 16.1875 4.48739C14.6125 3.49572 12.8833 2.99989 11 2.99989C10.5167 2.99989 10.0458 3.03322 9.58751 3.09989C9.12918 3.16656 8.66668 3.26656 8.20001 3.39989L7.03466 2.23454C7.67055 1.98326 8.31894 1.798 8.97984 1.67877C9.64072 1.55953 10.3141 1.49991 11 1.49991C13.1487 1.49991 15.1224 2.05825 16.9211 3.17491C18.7199 4.29158 20.1032 5.80247 21.0711 7.70759C21.1378 7.83451 21.1862 7.96239 21.2163 8.09124C21.2464 8.22009 21.2615 8.35631 21.2615 8.49989C21.2615 8.64347 21.249 8.77969 21.224 8.90854C21.199 9.03739 21.1532 9.16527 21.0865 9.29219C20.7327 10.0448 20.2884 10.7396 19.7538 11.3768C19.2192 12.014 18.6192 12.5832 17.9538 13.0845ZM11 15.4999C8.8949 15.4999 6.96542 14.9374 5.21159 13.8124C3.45774 12.6874 2.0635 11.2056 1.02889 9.36719C0.945555 9.24027 0.884663 9.10246 0.846213 8.95374C0.807746 8.80502 0.788513 8.65374 0.788513 8.49989C0.788513 8.34604 0.80518 8.19732 0.838513 8.05374C0.871847 7.91016 0.93018 7.76977 1.01351 7.63259C1.38531 6.95311 1.80647 6.30599 2.27699 5.69124C2.7475 5.07649 3.28853 4.52553 3.90006 4.03837L1.64236 1.76526C1.5039 1.61655 1.43563 1.43995 1.43756 1.23546C1.43948 1.03098 1.51287 0.856306 1.65774 0.71144C1.8026 0.566573 1.97825 0.494141 2.18466 0.494141C2.39106 0.494141 2.5667 0.566573 2.71156 0.71144L19.2885 17.2883C19.4269 17.4268 19.5003 17.5983 19.5086 17.8027C19.517 18.0072 19.4436 18.187 19.2885 18.3422C19.1436 18.487 18.968 18.5595 18.7615 18.5595C18.5551 18.5595 18.3795 18.487 18.2346 18.3422L14.7154 14.8537C14.1257 15.0819 13.5196 15.2467 12.8971 15.3479C12.2747 15.4492 11.6423 15.4999 11 15.4999ZM4.95389 5.09216C4.36799 5.54473 3.84138 6.0566 3.37406 6.62777C2.90675 7.19892 2.5154 7.82296 2.20001 8.49989C3.03335 10.1832 4.23751 11.5207 5.81251 12.5124C7.38751 13.5041 9.11668 13.9999 11 13.9999C11.4295 13.9999 11.8523 13.971 12.2683 13.9133C12.6843 13.8557 13.0975 13.7666 13.5077 13.646L12.2423 12.3499C12.0398 12.4383 11.8375 12.4982 11.6356 12.5297C11.4337 12.5611 11.2218 12.5768 11 12.5768C9.86541 12.5768 8.90228 12.181 8.11061 11.3893C7.31895 10.5976 6.92311 9.63449 6.92311 8.49989C6.92311 8.27809 6.94042 8.06623 6.97504 7.86432C7.00965 7.66238 7.06799 7.46013 7.15004 7.25757L4.95389 5.09216Z" fill="#4B5563"/>
</svg>
